<svg width="56" height="40" viewBox="0 0 56 40" fill="none" xmlns="http://www.w3.org/2000/svg">
<path d="M54.3378 14.495C54.4558 11.116 53.7086 7.76222 52.1653 4.74515C51.1183 3.50718 49.6652 2.67174 48.0592 2.38441C41.4166 1.78838 34.7465 1.54409 28.0775 1.65258C21.4328 1.53917 14.7867 1.77558 8.16741 2.3608C6.85874 2.59621 5.64765 3.20322 4.68195 4.10775C2.53338 6.06717 2.29465 9.41942 2.05592 12.2523C1.70955 17.3458 1.70955 22.4565 2.05592 27.5499C2.12498 29.1444 2.36506 30.7271 2.77211 32.2714C3.05996 33.4637 3.64233 34.5669 4.46709 35.482C5.43936 36.4345 6.67865 37.076 8.02417 37.3234C13.171 37.9516 18.3569 38.212 23.5416 38.1024C31.8972 38.2205 39.2262 38.1024 47.8921 37.4414C49.2706 37.2092 50.5448 36.5669 51.5446 35.6C52.213 34.9388 52.7122 34.1295 53.0009 33.2393C53.8547 30.6487 54.274 27.9373 54.2423 25.2128C54.3378 23.8908 54.3378 15.9115 54.3378 14.495ZM22.6822 26.6292V12.0162L36.815 19.3581C32.8521 21.53 27.6239 23.9852 22.6822 26.6292Z" stroke="white" stroke-width="2"/>
</svg>
