<svg width="60" height="38" viewBox="0 0 60 38" fill="none" xmlns="http://www.w3.org/2000/svg">
<path d="M55.4026 1.48535L55.4026 1.48541L55.4129 1.48235C56.347 1.20591 57.0844 1.09534 57.6414 1.1029C58.2008 1.11049 58.5101 1.2352 58.673 1.3565C58.9102 1.53302 59.2155 2.04699 58.7879 3.48286L58.7878 3.48284L58.785 3.49286L49.9835 34.2129L49.9813 34.2207L49.9792 34.2286C49.6864 35.3169 49.2374 35.8135 48.7474 36.0106C48.2221 36.2219 47.3399 36.2198 45.9036 35.6003L32.5267 28.2166L31.9818 27.9158L31.4714 28.2718L23.6554 33.7233C23.117 34.0583 22.4202 34.0498 21.9541 33.6202L22.7455 26.5043L50.6697 7.8673C50.671 7.86643 50.6723 7.86556 50.6737 7.8647C50.9084 7.71089 51.1219 7.54492 51.2924 7.36328C51.4476 7.19785 51.6595 6.92243 51.713 6.54756C51.78 6.07903 51.5725 5.67478 51.2603 5.42978C51.004 5.22871 50.7135 5.15685 50.5148 5.12642C50.0976 5.06254 49.6098 5.11277 49.1434 5.2207C48.6673 5.33087 48.1437 5.51731 47.6262 5.78558L14.988 20.6542L1.72632 17.5476C1.37501 17.4297 1.17366 17.3152 1.06677 17.2359C1.10601 17.1948 1.16422 17.1418 1.24951 17.0794C1.47277 16.916 1.8118 16.7407 2.26578 16.5896L55.4026 1.48535ZM50.223 7.10555C50.2229 7.10566 50.2196 7.10514 50.2137 7.10363C50.2202 7.10467 50.2232 7.10543 50.223 7.10555ZM49.8427 5.98451C49.8429 5.98449 49.8407 5.9874 49.8353 5.99326C49.8397 5.98745 49.8424 5.98452 49.8427 5.98451Z" stroke="white" stroke-width="2"/>
</svg>
