<svg width="54" height="52" viewBox="0 0 54 52" fill="none" xmlns="http://www.w3.org/2000/svg">
<g clip-path="url(#clip0)">
<path d="M38.5475 0.269531H16.2963C14.1516 0.269531 12.4052 1.94998 12.4052 4.01378V47.5244C12.4052 49.5891 14.1516 51.2695 16.2963 51.2695H38.5466C40.6922 51.2695 42.4385 49.5891 42.4385 47.5253V4.01378C42.4385 1.94998 40.6922 0.269531 38.5475 0.269531ZM14.1719 7.06953H40.6719V39.3695H14.1719V7.06953ZM16.2963 1.96953H38.5466C39.7188 1.96953 40.6719 2.88668 40.6719 4.01378V5.36953H14.1719V4.01378C14.1719 2.88668 15.125 1.96953 16.2963 1.96953ZM38.5475 49.5695H16.2963C15.125 49.5695 14.1719 48.6524 14.1719 47.5253V41.0695H40.6719V47.5253C40.6719 48.6524 39.7188 49.5695 38.5475 49.5695Z" fill="#195E5E"/>
<path d="M27.4219 41.9199C25.4733 41.9199 23.8886 43.4448 23.8886 45.3199C23.8886 47.195 25.4733 48.7199 27.4219 48.7199C29.3705 48.7199 30.9552 47.195 30.9552 45.3199C30.9552 43.4448 29.3705 41.9199 27.4219 41.9199ZM27.4219 47.0199C26.4476 47.0199 25.6552 46.2575 25.6552 45.3199C25.6552 44.3824 26.4476 43.6199 27.4219 43.6199C28.3962 43.6199 29.1886 44.3824 29.1886 45.3199C29.1886 46.2575 28.3962 47.0199 27.4219 47.0199Z" fill="#195E5E"/>
<path d="M23.8885 4.51934H27.4219C27.9104 4.51934 28.3052 4.13939 28.3052 3.66934C28.3052 3.19929 27.9104 2.81934 27.4219 2.81934H23.8885C23.4001 2.81934 23.0052 3.19929 23.0052 3.66934C23.0052 4.13939 23.4001 4.51934 23.8885 4.51934Z" fill="#195E5E"/>
<path d="M30.0719 4.51934H30.9552C31.4437 4.51934 31.8386 4.13939 31.8386 3.66934C31.8386 3.19929 31.4437 2.81934 30.9552 2.81934H30.0719C29.5834 2.81934 29.1886 3.19929 29.1886 3.66934C29.1886 4.13939 29.5834 4.51934 30.0719 4.51934Z" fill="#195E5E"/>
</g>
<defs>
<clipPath id="clip0">
<rect width="53" height="51" fill="white" transform="translate(0.921875 0.269531)"/>
</clipPath>
</defs>
</svg>
